<?xml version="1.0" encoding="utf-8"?>
<!-- Generator: Adobe Illustrator 25.3.1, SVG Export Plug-In . SVG Version: 6.00 Build 0)  -->
<svg version="1.1" id="Layer_1" xmlns="http://www.w3.org/2000/svg" xmlns:xlink="http://www.w3.org/1999/xlink" x="0px" y="0px"
	 viewBox="0 0 175.6 222" style="enable-background:new 0 0 175.6 222;" xml:space="preserve">
<path d="M175.4,31.7c0-13.2-6.6-20-19.9-20.2c-7.7-0.2-15.3,0-23,0c-1.3,0-2.6-0.2-3.8-0.3c0-0.9,0.1-1.8,0.1-2.5
	c0-8.8-1.4-8.6-9.4-8.6h-60C48.2,0,46.2-0.6,46.2,11.4h-5.7c-8,0.1-16-0.2-24,0.4C6,12.6,0.1,19.3,0,30v174
	c0,10.8,7.2,17.8,17.9,17.8c45.8,0,91.6-0.3,137.5,0.2c13.3,0.2,20.3-9.3,20.2-20.4C175.2,145,175.4,88.3,175.4,31.7z M57.9,14.4
	c0-3.7,2.2-3.5,3.3-3.5c17.6-0.2,35.2-0.2,52.8,0c1.1,0,3.1-0.1,3.1,2.6c0,2.5,0.1,4.9,0.1,7.7c0,1.1-0.8,2-1.9,2.1H88.3
	c-8.6,0-17.3-0.1-25.9,0.1c-3.4,0.1-4.7-0.7-4.7-4.5C57.8,17.3,57.9,15.7,57.9,14.4z M58.7,172c0,2.9-2.4,5.3-5.3,5.3H39.7
	c-2.9,0-5.3-2.4-5.3-5.3v-2.6c0-2.9,2.4-5.3,5.3-5.3h3c2.6-0.3,5.3-0.3,7.9,0h2.8c2.9,0,5.3,2.4,5.3,5.3V172z M58.7,135.7
	c0,2.9-2.4,5.3-5.3,5.3H39.7c-2.9,0-5.3-2.4-5.3-5.3v-2.6c0-2.9,2.4-5.3,5.3-5.3h13.7c2.9,0,5.3,2.4,5.3,5.3V135.7z M58.7,100.4
	c0,2.9-2.4,5.3-5.3,5.3H39.7c-2.9,0-5.3-2.4-5.3-5.3v-2.6c0-2.9,2.4-5.3,5.3-5.3h13.7c2.9,0,5.3,2.4,5.3,5.3V100.4z M58.7,65.3
	c0,2.9-2.4,5.3-5.3,5.3H39.7c-2.9,0-5.3-2.4-5.3-5.3v-2.6c0-2.9,2.4-5.3,5.3-5.3h13.7c2.9,0,5.3,2.4,5.3,5.3V65.3z M142,172
	c0,2.9-2.4,5.3-5.3,5.3H74.1c-2.9,0-5.3-2.4-5.3-5.3v-2.6c0-2.9,2.4-5.3,5.3-5.3h62.6c2.9,0,5.3,2.4,5.3,5.3V172z M142,135.7
	c0,2.9-2.4,5.3-5.3,5.3H74.1c-2.9,0-5.3-2.4-5.3-5.3v-2.6c0-2.9,2.4-5.3,5.3-5.3h62.6c2.9,0,5.3,2.4,5.3,5.3V135.7z M142,100.5
	c0,2.9-2.4,5.3-5.3,5.3H74.1c-2.9,0-5.3-2.4-5.3-5.3v-2.6c0-2.9,2.4-5.3,5.3-5.3h62.6c2.9,0,5.3,2.4,5.3,5.3V100.5z M142,65.3
	c0,2.9-2.4,5.3-5.3,5.3H74.1c-2.9,0-5.3-2.4-5.3-5.3v-2.6c0-2.9,2.4-5.3,5.3-5.3h62.6c2.9,0,5.3,2.4,5.3,5.3V65.3z"/>
</svg>
