<svg xmlns="http://www.w3.org/2000/svg" viewBox="0 0 285.94 234.04"><g id="Layer_2" data-name="Layer 2"><g id="Layer_1-2" data-name="Layer 1"><path d="M282.8,211.2c-4.33,2.23-7.6-2-11-4.22C248.3,191.8,223,185.76,195.53,193c-21.29,5.64-36.9,18.66-45.76,39.19-.25.59-.57,1.15-.86,1.72l-1-.21v-5.93q0-81.22,0-162.44c0-2.33.09-4.66.06-7C147.69,31,163.8,14.5,184.67,6.51,216.91-5.82,247.19-.13,275.2,19.28a22,22,0,0,1,10,17.11c.22,3.15.56,6.31.57,9.47q0,77,0,153.93C285.73,203.81,287.12,209,282.8,211.2Z"/><path d="M138,227.69c0,1.78.38,3.64-1.07,6.35-6-14.84-15.29-26-28.47-33.47C82.24,185.8,55.5,187.34,28.7,199a112.72,112.72,0,0,0-18.59,10.71C4.2,213.69.82,212,.26,204.8c-.15-2-.11-4-.11-6C.14,147.67.36,96.53,0,45.39c-.1-14,5-23.79,17.23-30.68C45.84-1.47,75.23-5,105.77,8.41a58.08,58.08,0,0,1,23,18.77c7.49,10,9.2,21.58,9.21,33.6Q138,128,138,195.21C138,206,138,216.86,138,227.69Z"/></g></g></svg>