<svg xmlns="http://www.w3.org/2000/svg" viewBox="0 0 134.81 134.81"><defs><style>.cls-1{fill:#fff;}</style></defs><g id="Layer_2" data-name="Layer 2"><g id="Layer_1-2" data-name="Layer 1"><circle cx="67.4" cy="67.4" r="67.4"/><path class="cls-1" d="M59.66,82.57V79.7a25,25,0,0,1,.8-6.71,15.55,15.55,0,0,1,2.74-5.33,31.87,31.87,0,0,1,5.36-5.21q3.72-3,5.91-5.18a14.62,14.62,0,0,0,3.17-4.33,12.53,12.53,0,0,0,1-5.18,8.75,8.75,0,0,0-3.14-7.24Q72.33,38,66.65,38a28.16,28.16,0,0,0-8.78,1.29,57.57,57.57,0,0,0-7.72,3.14l-3.57-7.8A47.71,47.71,0,0,1,56,30.86,41.11,41.11,0,0,1,67.3,29.4q10,0,15.45,4.88t5.48,13.18a19,19,0,0,1-1.46,7.82,19.75,19.75,0,0,1-4.2,6A76.46,76.46,0,0,1,76,67a43.67,43.67,0,0,0-5,4.65,11.17,11.17,0,0,0-2.36,4A16.79,16.79,0,0,0,68,80.56v2ZM57.6,98.26c0-2.54.62-4.35,1.88-5.4a7.86,7.86,0,0,1,9.48,0c1.31,1,2,2.86,2,5.4s-.66,4.3-2,5.44a7.42,7.42,0,0,1-9.48,0C58.22,102.56,57.6,100.75,57.6,98.26Z"/></g></g></svg>