<svg xmlns="http://www.w3.org/2000/svg" viewBox="0 0 199.13 162.71"><g id="Layer_2" data-name="Layer 2"><g id="Layer_1-2" data-name="Layer 1"><path d="M0,81.77c0,13.66,0,27.32,0,41C.12,146,16.78,162.6,40.13,162.67q23,.08,46,0c21.79-.07,38.37-15.86,39.51-37.55.29-5.62-.31-6.24-6-6.28h-2.49c-8.32,0-8.32,0-9.38,7.94a20.59,20.59,0,0,1-20.13,18q-24.73.21-49.48,0a20.22,20.22,0,0,1-20.23-20.45q-.16-43,0-86A20.49,20.49,0,0,1,38.2,17.88c16.32-.22,32.66-.19,49,0a20.39,20.39,0,0,1,20.51,20.25c0,4.75,1.59,6.4,6.06,5.74a6.68,6.68,0,0,1,1,0c12.15,0,12.18,0,10.1-12.28-3-17.73-18.6-31-37.43-31.35q-24.48-.43-49,0C16.51.59.23,17.27.06,39.28-.06,53.44,0,67.61,0,81.77Z"/><path d="M146.75,61.64H135.21c-12.66,0-25.33,0-38,0-5.68,0-7.88,2.17-8,7.86-.1,8-.11,16,0,24,.09,5.62,2.33,7.72,8.08,7.75,14.49,0,29,0,43.49,0h5.9c0,3.2-.09,5.82,0,8.43.23,5.59,4.74,8.21,9.26,5.07q20.11-14,39.92-28.34c4.15-3,4.26-6.93.16-9.91Q176.14,62,155.8,47.92c-4.4-3-8.73-.49-9,4.87C146.63,55.44,146.75,58.1,146.75,61.64Z"/></g></g></svg>