<svg xmlns="http://www.w3.org/2000/svg" viewBox="0 0 266.55 215.15"><g id="Layer_2" data-name="Layer 2"><g id="Layer_1-2" data-name="Layer 1"><path d="M225.19,58.22a58.23,58.23,0,0,1-80.34,53.85,58.23,58.23,0,0,0,0-107.71,58.23,58.23,0,0,1,80.34,53.86Z"/><path d="M266.55,215.15H222.29c0-47.38-33.1-79.27-77.44-87.18A125.05,125.05,0,0,1,167,126C222,126,266.55,160.16,266.55,215.15Z"/><circle cx="99.57" cy="58.22" r="58.21"/><path d="M0,215.15C0,160.16,44.58,126,99.57,126s99.58,34.12,99.58,89.11"/></g></g></svg>