<svg xmlns="http://www.w3.org/2000/svg" viewBox="0 0 81.31 93.49"><defs><style>.cls-1{fill:#fff;}</style></defs><g id="Layer_2" data-name="Layer 2"><g id="Layer_1-2" data-name="Layer 1"><rect x="17.3" y="51.48" width="8.71" height="8.66"/><rect x="17.3" y="68.18" width="8.71" height="8.66"/><rect x="36.13" y="51.48" width="8.71" height="8.66"/><rect x="36.13" y="68.18" width="8.71" height="8.66"/><rect x="54.95" y="51.48" width="8.71" height="8.66"/><rect x="54.95" y="68.18" width="8.71" height="8.66"/><g id="Layer_2-2" data-name="Layer 2"><g id="Layer_1-2-2" data-name="Layer 1-2"><rect class="cls-1" x="17.3" y="51.48" width="8.71" height="8.66"/><rect class="cls-1" x="36.13" y="51.48" width="8.71" height="8.66"/><rect class="cls-1" x="54.95" y="51.48" width="8.71" height="8.66"/><rect class="cls-1" x="17.3" y="68.18" width="8.71" height="8.66"/><rect class="cls-1" x="36.13" y="68.18" width="8.71" height="8.66"/><rect class="cls-1" x="54.95" y="68.18" width="8.71" height="8.66"/><path d="M0,43.44V93.49H81.31v-50Zm55,8h8.71v8.66H55Zm0,16.7h8.71v8.66H55ZM36.13,51.48h8.71v8.66H36.13Zm0,16.7h8.71v8.66H36.13ZM17.3,51.48H26v8.66H17.3Zm0,16.7H26v8.66H17.3Z"/><path d="M81.31,17.67V34.4H0V17.34A8.09,8.09,0,0,1,8.09,9.25H17.3V0H26V9.25H55V0h8.66V9.25h9.25A8.42,8.42,0,0,1,81.31,17.67Z"/></g></g></g></g></svg>